<?xml version="1.0" encoding="UTF-8"?>
<svg id="Layer_2" data-name="Layer 2" xmlns="http://www.w3.org/2000/svg" viewBox="0 0 220.08 220.08">
  <defs>
    <style>
      .cls-1 {
        fill: none;
      }

      .cls-1, .cls-2 {
        stroke-width: 0px;
      }

      .cls-2 {
        fill: #e41e26;
        fill-rule: evenodd;
      }
    </style>
  </defs>
  <g id="Layer_1-2" data-name="Layer 1">
    <g>
      <polygon class="cls-2" points="105.4 202.11 56.54 202.11 108.25 56.82 157.12 56.82 105.4 202.11"/>
      <path class="cls-2" d="M74.69,17.98h40.29c-1.95,13.63-6.96,26.65-14.65,38.07-1.47,2.19-3.04,4.31-4.69,6.36-18.42,23.18-46.99,35.97-76.55,34.29l14.44-40.57c19.94-3.7,35.96-18.53,41.16-38.14Z"/>
      <polygon class="cls-2" points="24.48 202.11 24.48 185.27 29.01 185.27 33.47 197.06 37.98 185.27 42.47 185.27 42.47 202.11 39.63 202.11 39.63 188.12 39.59 188.12 34.51 202.11 32.43 202.11 27.36 188.12 27.31 188.12 27.31 202.11 24.48 202.11"/>
      <polygon class="cls-2" points="14.28 202.11 14.28 187.98 9.15 187.98 9.15 185.27 22.38 185.27 22.38 187.98 17.25 187.98 17.25 202.11 14.28 202.11"/>
      <path class="cls-2" d="M206.97,155.3c-3.23-13.34-13.48-23.87-26.72-27.47-13.27-3.6-27.61.29-37.13,10.22-9.52,9.93-12.84,24.27-8.68,37.38,1.64,5.33,4.45,10.23,8.23,14.33,3.89,4.22,8.7,7.49,14.05,9.56,1.62.62,3.28,1.13,4.97,1.53,12.08,2.82,24.79-.46,33.98-8.79,10.13-9.27,14.53-23.42,11.3-36.76ZM174.5,178.69c-7.84,2.28-16.06-2.17-18.45-9.98-2.17-6.79.76-14.18,6.99-17.65,4.86-2.64,10.78-2.44,15.46.52,3.16,2.05,5.44,5.22,6.37,8.88,2.05,7.88-2.55,15.96-10.36,18.23Z"/>
    </g>
    <rect class="cls-1" width="220.08" height="220.08"/>
  </g>
</svg>